<!-- icon666.com - MILLIONS vector ICONS FREE --><svg id="Layer_1" enable-background="new 0 0 512 512" viewBox="0 0 512 512" xmlns="http://www.w3.org/2000/svg"><g clip-rule="evenodd" fill-rule="evenodd"><path d="m256.001-.003c-141.159 0-256.002 114.843-256.002 256.002s114.843 256.002 256.002 256.002 255.997-114.843 255.997-256.002c.001-141.159-114.837-256.002-255.997-256.002z" fill="#4cd3aa"></path><path d="m321.114 503.6c109.725-28.878 190.885-128.935 190.885-247.601 0-5.871-.217-11.691-.608-17.465l-95.637-95.637c-.214-.262-.443-.516-.687-.76-3.901-3.901-10.241-3.901-14.137 0l-206.506 206.506-83.356-83.351c-.122-.122-.246-.24-.373-.355-3.922-3.547-9.986-3.429-13.769.355-3.901 3.906-3.901 10.236 0 14.142l90.427 90.422c.117.117.237.232.359.342z" fill="#26b290"></path><path d="m415.067 142.138c3.911 3.911 3.911 10.241 0 14.147l-213.577 213.571c-1.873 1.878-4.415 2.929-7.066 2.929s-5.198-1.052-7.071-2.929l-90.427-90.422c-3.901-3.906-3.901-10.236 0-14.142 3.906-3.906 10.241-3.906 14.142 0l83.356 83.351 206.506-206.505c3.896-3.901 10.236-3.901 14.137 0z" fill="#fefefe"></path></g></svg>