<!-- icon666.com - MILLIONS vector ICONS FREE --><svg viewBox="0 0 512 512" xmlns="http://www.w3.org/2000/svg"><path d="m512 256c0 141.386719-114.613281 256-256 256s-256-114.613281-256-256 114.613281-256 256-256 256 114.613281 256 256zm0 0" fill="#ff7855"></path><path d="m512 256c0-5.445312-.191406-10.847656-.523438-16.207031l-102.25-102.25-273.523437 271.84375 101.953125 101.953125c6.058594.429687 12.175781.660156 18.34375.660156 141.386719 0 256-114.613281 256-256zm0 0" fill="#ff562b"></path><path d="m136.902344 102.332031-35.570313 35.570313 118.558594 118.558594-118.558594 118.554687 35.570313 35.570313 118.554687-118.558594 16.769531-35.566406-16.769531-35.570313zm0 0" fill="#446080"></path><path d="m409.585938 137.902344-35.570313-35.570313-118.558594 118.558594v71.136719l118.558594 118.558594 35.570313-35.570313-118.558594-118.554687zm0 0" fill="#324860"></path></svg>